<svg width="307.741015625px" height="121.39999999999999px" xmlns="http://www.w3.org/2000/svg" viewBox="96.1294921875 14.300000000000004 307.741015625 121.39999999999999" style="background: rgb(253, 253, 253);" preserveAspectRatio="xMidYMid"><defs><filter id="editing-neon" x="-100%" y="-100%" width="300%" height="300%"><feFlood flood-color="#d13901" result="flood"></feFlood><feComposite operator="in" in="flood" in2="SourceAlpha" result="color"></feComposite><feFlood flood-color="#d13901" result="flood2"></feFlood><feComposite operator="in" in="flood2" in2="SourceAlpha" result="color2"></feComposite><feMorphology operator="dilate" radius="2" in="color" result="dilate"></feMorphology><feGaussianBlur stdDeviation="6" in="color" result="blur1"></feGaussianBlur><feGaussianBlur stdDeviation="2.5" in="color" result="blur2"></feGaussianBlur><feGaussianBlur stdDeviation="1" in="SourceAlpha" result="blur3"></feGaussianBlur><feGaussianBlur stdDeviation="6" in="dilate" result="blur4"></feGaussianBlur><feConvolveMatrix in="color2" result="conv" order="3,3" divisor="1" kernelMatrix="1 1 1  1 1 1  1 1 1"></feConvolveMatrix><feMerge><feMergeNode in="blur1"></feMergeNode><feMergeNode in="blur2"></feMergeNode><feMergeNode in="blur4"></feMergeNode><feMergeNode in="blur3"></feMergeNode><feMergeNode in="blur3"></feMergeNode><feMergeNode in="blur3"></feMergeNode><feMergeNode in="blur3"></feMergeNode><feMergeNode in="conv"></feMergeNode><feMergeNode in="SourceGraphic"></feMergeNode></feMerge></filter></defs><g filter="url(#editing-neon)"><g transform="translate(144.68595579266548, 99)"><path d="M26.11-42.69L26.11-42.69L26.11-42.69Q41.79-42.69 41.79-31.62L41.79-31.62L41.79-31.62Q41.79-25.54 37.89-21.89L37.89-21.89L37.89-21.89Q34.05-18.24 27.33-18.24L27.33-18.24L27.33-18.24Q24.19-18.24 21.76-20.03L21.76-20.03L21.76-20.03Q20.61-20.80 19.84-21.82L19.84-21.82L19.84-21.82Q24.51-21.82 26.98-24.67L26.98-24.67L26.98-24.67Q29.44-27.52 29.44-33.09L29.44-33.09L29.44-33.09Q29.44-38.66 23.94-38.66L23.94-38.66L22.40-38.66L22.40-38.66Q22.02-38.66 21.70-38.59L21.70-38.59L14.34 0L0.45 0L8.32-41.92L8.32-41.92Q15.17-42.56 19.14-42.62L19.14-42.62L19.14-42.62Q23.10-42.69 26.11-42.69ZM57.47-3.52L57.47-3.52L57.47-3.52Q55.49 1.28 49.15 1.28L49.15 1.28L49.15 1.28Q45.89 1.28 43.84-0.96L43.84-0.96L43.84-0.96Q42.11-2.94 42.11-4.93L42.11-4.93L42.11-4.93Q42.11-10.11 44.48-20.22L44.48-20.22L46.85-32.64L59.84-33.92L55.94-13.70L55.94-13.70Q54.85-8.96 54.85-7.30L54.85-7.30L54.85-7.30Q54.85-3.65 57.47-3.52ZM48-41.54L48-41.54L48-41.54Q48-44.03 50.08-45.38L50.08-45.38L50.08-45.38Q52.16-46.72 55.17-46.72L55.17-46.72L55.17-46.72Q58.18-46.72 60-45.38L60-45.38L60-45.38Q61.82-44.03 61.82-41.54L61.82-41.54L61.82-41.54Q61.82-39.04 59.81-37.76L59.81-37.76L59.81-37.76Q57.79-36.48 54.78-36.48L54.78-36.48L54.78-36.48Q51.78-36.48 49.89-37.76L49.89-37.76L49.89-37.76Q48-39.04 48-41.54ZM68.35 0L60.99 0L72.58-42.24L85.95-42.24L88.90-18.11L100.80-42.24L112-42.24L113.15-10.62L113.15-10.62Q113.41-4.35 116.48-2.43L116.48-2.43L116.48-2.43Q115.78-1.15 113.73 0.06L113.73 0.06L113.73 0.06Q111.68 1.28 108.96 1.28L108.96 1.28L108.96 1.28Q106.24 1.28 104.64 0.51L104.64 0.51L104.64 0.51Q103.04-0.26 102.14-1.54L102.14-1.54L102.14-1.54Q100.54-3.84 100.54-8.26L100.54-8.26L100.54-28.03L87.94 0L80 0L75.52-28.74L68.35 0ZM133.18 1.28L133.18 1.28L133.18 1.28Q119.10 1.28 119.10-11.97L119.10-11.97L119.10-11.97Q119.10-21.38 124.29-27.46L124.29-27.46L124.29-27.46Q129.79-33.92 139.33-33.92L139.33-33.92L139.33-33.92Q146.24-33.92 149.76-30.72L149.76-30.72L149.76-30.72Q153.28-27.52 153.28-20.80L153.28-20.80L153.28-20.80Q153.28-10.56 147.78-4.61L147.78-4.61L147.78-4.61Q142.40 1.28 133.18 1.28ZM134.85-26.56L134.85-26.56L134.85-26.56Q134.08-24.83 133.47-22.24L133.47-22.24L133.47-22.24Q132.86-19.65 132.10-15.55L132.10-15.55L132.10-15.55Q131.33-11.46 131.33-6.40L131.33-6.40L131.33-6.40Q131.33-4.74 131.87-3.65L131.87-3.65L131.87-3.65Q132.42-2.56 133.89-2.56L133.89-2.56L133.89-2.56Q135.36-2.56 136.29-3.26L136.29-3.26L136.29-3.26Q137.22-3.97 137.92-5.63L137.92-5.63L137.92-5.63Q139.20-8.58 140.22-14.05L140.22-14.05L140.22-14.05Q141.25-19.52 141.34-21.89L141.34-21.89L141.34-21.89Q141.44-24.26 141.44-26.02L141.44-26.02L141.44-26.02Q141.44-27.78 140.93-28.93L140.93-28.93L140.93-28.93Q140.42-30.08 138.98-30.08L138.98-30.08L138.98-30.08Q137.54-30.08 136.58-29.18L136.58-29.18L136.58-29.18Q135.62-28.29 134.85-26.56ZM176.19-22.46L176.19-22.46L176.19-22.46Q177.09-24.83 177.09-26.88L177.09-26.88L177.09-26.88Q177.09-30.66 174.02-30.66L174.02-30.66L174.02-30.66Q172.42-30.66 171.10-29.22L171.10-29.22L171.10-29.22Q169.79-27.78 169.79-25.98L169.79-25.98L169.79-25.98Q169.79-24.70 170.82-23.68L170.82-23.68L170.82-23.68Q172.29-22.27 176.06-19.97L176.06-19.97L176.06-19.97Q179.84-17.66 181.28-15.78L181.28-15.78L181.28-15.78Q182.72-13.89 182.72-11.30L182.72-11.30L182.72-11.30Q182.72-8.70 181.47-6.34L181.47-6.34L181.47-6.34Q180.22-3.97 177.98-2.30L177.98-2.30L177.98-2.30Q173.18 1.28 165.50 1.28L165.50 1.28L165.50 1.28Q161.34 1.28 158.14-0.90L158.14-0.90L158.14-0.90Q154.94-3.01 154.94-5.50L154.94-5.50L154.94-5.50Q154.94-8 156.77-9.47L156.77-9.47L156.77-9.47Q158.59-10.94 161.28-10.94L161.28-10.94L161.28-10.94Q163.97-10.94 165.63-9.92L165.63-9.92L165.63-9.92Q164.80-7.81 164.80-6.40L164.80-6.40L164.80-6.40Q164.80-2.18 168.38-2.18L168.38-2.18L168.38-2.18Q169.92-2.18 170.94-3.14L170.94-3.14L170.94-3.14Q171.97-4.10 171.97-5.76L171.97-5.76L171.97-5.76Q171.97-9.02 166.46-12.48L166.46-12.48L166.46-12.48Q161.98-15.42 160.96-16.58L160.96-16.58L160.96-16.58Q159.23-18.62 159.23-21.18L159.23-21.18L159.23-21.18Q159.23-23.74 160.45-26.18L160.45-26.18L160.45-26.18Q161.66-28.61 163.90-30.34L163.90-30.34L163.90-30.34Q168.58-33.92 176.70-33.92L176.70-33.92L176.70-33.92Q180.86-33.92 183.33-32.26L183.33-32.26L183.33-32.26Q185.79-30.59 185.79-27.78L185.79-27.78L185.79-27.78Q185.79-24.96 184.10-23.36L184.10-23.36L184.10-23.36Q182.40-21.76 179.33-21.76L179.33-21.76L179.33-21.76Q177.22-21.76 176.19-22.46ZM189.18-6.40L189.18-6.40L189.18-6.40Q189.18-8.13 190.08-12.48L190.08-12.48L193.47-29.76L189.70-29.76L189.95-31.68L189.95-31.68Q197.63-33.98 205.06-39.62L205.06-39.62L208.13-39.62L206.59-32.64L211.58-32.64L211.01-29.76L206.08-29.76L202.82-12.48L202.82-12.48Q201.98-8.51 201.98-7.17L201.98-7.17L201.98-7.17Q201.98-4.10 204.67-3.46L204.67-3.46L204.67-3.46Q204.03-1.28 201.73 0L201.73 0L201.73 0Q199.42 1.28 196.16 1.28L196.16 1.28L196.16 1.28Q192.90 1.28 191.04-0.77L191.04-0.77L191.04-0.77Q189.18-2.82 189.18-6.40Z" fill="none" stroke="#ffd492" stroke-width="1"></path></g></g><style>text {
  font-size: 64px;
  font-family: Arial Black;
  dominant-baseline: central;
  text-anchor: middle;
}</style></svg>